<?xml version="1.0" encoding="utf-8"?>
<!-- Generator: Avocode 2.5.2 - http://avocode.com -->
<svg height="16" width="12" xmlns:xlink="http://www.w3.org/1999/xlink" xmlns="http://www.w3.org/2000/svg" viewBox="0 0 12 16">
    <path fill="#ffffff" fill-rule="evenodd" d="M 9.82 16 C 9.82 16 2.18 16 2.18 16 C 0.98 16 0 14.96 0 13.68 C 0 13.68 0 2.32 0 2.32 C 0 1.04 0.98 0 2.18 0 C 2.18 0 9.82 0 9.82 0 C 11.02 0 12 1.04 12 2.32 C 12 2.32 12 13.68 12 13.68 C 12 14.96 11.02 16 9.82 16 Z M 8 3 C 8 3 4 3 4 3 C 4 3 4 4 4 4 C 4 4 8 4 8 4 C 8 4 8 3 8 3 Z M 10 6 C 10 6 2 6 2 6 C 2 6 2 7 2 7 C 2 7 10 7 10 7 C 10 7 10 6 10 6 Z M 10 8 C 10 8 2 8 2 8 C 2 8 2 9 2 9 C 2 9 10 9 10 9 C 10 9 10 8 10 8 Z M 10 10 C 10 10 2 10 2 10 C 2 10 2 11 2 11 C 2 11 10 11 10 11 C 10 11 10 10 10 10 Z M 10 12 C 10 12 2 12 2 12 C 2 12 2 13 2 13 C 2 13 10 13 10 13 C 10 13 10 12 10 12 Z" />
</svg>