<svg xmlns="http://www.w3.org/2000/svg" xmlns:xlink="http://www.w3.org/1999/xlink" preserveAspectRatio="xMidYMid" width="28" height="20" viewBox="0 0 28 20">
  <defs>
    <style>

      .cls-2 {
        fill: #ffffff;
      }
    </style>
  </defs>
  <path d="M24.583,6.583 C24.583,6.583 25.224,3.235 25.224,3.235 C25.224,3.235 26.594,6.969 26.594,6.969 C26.594,6.969 24.583,6.583 24.583,6.583 ZM25.561,1.475 C25.561,1.475 27.735,0.738 27.735,0.738 C27.735,0.738 25.224,3.235 25.224,3.235 C25.224,3.235 25.561,1.475 25.561,1.475 ZM26.086,9.986 C26.086,9.986 23.795,10.945 23.795,10.945 C23.795,10.945 24.583,6.831 24.583,6.831 C24.583,6.831 26.086,9.986 26.086,9.986 ZM18.161,13.441 C18.161,13.441 23.531,11.193 23.531,11.193 C23.531,11.193 22.680,15.636 22.680,15.636 C22.680,15.636 18.161,13.441 18.161,13.441 ZM18.834,15.911 C18.834,15.911 17.897,13.441 17.897,13.441 C17.897,13.441 22.416,15.636 22.416,15.636 C22.416,15.636 18.834,15.911 18.834,15.911 ZM15.645,7.501 C15.645,7.501 20.282,9.748 20.282,9.748 C20.282,9.748 17.897,13.441 17.897,13.441 C17.897,13.441 15.645,7.501 15.645,7.501 ZM18.971,5.880 C18.971,5.880 20.282,9.499 20.282,9.499 C20.282,9.499 15.645,7.253 15.645,7.253 C15.645,7.253 18.971,5.880 18.971,5.880 ZM14.547,4.806 C14.547,4.806 18.707,5.632 18.707,5.632 C18.707,5.632 15.380,7.004 15.380,7.004 C15.380,7.004 14.547,4.806 14.547,4.806 ZM16.905,0.409 C16.905,0.409 18.707,5.384 18.707,5.384 C18.707,5.384 14.547,4.558 14.547,4.558 C14.547,4.558 16.905,0.409 16.905,0.409 ZM13.043,10.601 C13.043,10.601 15.116,6.756 15.116,6.756 C15.116,6.756 17.369,12.697 17.369,12.697 C17.369,12.697 13.043,10.601 13.043,10.601 ZM13.159,5.788 C13.159,5.788 14.283,4.558 14.283,4.558 C14.283,4.558 15.116,6.756 15.116,6.756 C15.116,6.756 13.159,5.788 13.159,5.788 ZM13.157,1.573 C13.157,1.573 16.640,0.409 16.640,0.409 C16.640,0.409 14.283,4.558 14.283,4.558 C14.283,4.558 13.157,1.573 13.157,1.573 ZM14.018,4.558 C14.018,4.558 12.895,5.788 12.895,5.788 C12.895,5.788 12.893,1.573 12.893,1.573 C12.893,1.573 14.018,4.558 14.018,4.558 ZM12.779,10.601 C12.779,10.601 12.895,5.788 12.895,5.788 C12.895,5.788 14.852,6.756 14.852,6.756 C14.852,6.756 12.779,10.601 12.779,10.601 ZM10.072,10.162 C10.072,10.162 12.630,6.532 12.630,6.532 C12.630,6.532 12.514,11.346 12.514,11.346 C12.514,11.346 10.072,10.162 10.072,10.162 ZM12.514,11.594 C12.514,11.594 10.067,15.066 10.067,15.066 C10.067,15.066 10.072,10.410 10.072,10.410 C10.072,10.410 12.514,11.594 12.514,11.594 ZM4.277,12.139 C4.277,12.139 9.808,10.162 9.808,10.162 C9.808,10.162 9.803,14.818 9.803,14.818 C9.803,14.818 4.277,12.139 4.277,12.139 ZM7.150,8.625 C7.150,8.625 9.808,9.914 9.808,9.914 C9.808,9.914 4.277,11.891 4.277,11.891 C4.277,11.891 7.150,8.625 7.150,8.625 ZM1.774,5.898 C1.774,5.898 6.885,8.377 6.885,8.377 C6.885,8.377 4.013,11.642 4.013,11.642 C4.013,11.642 1.774,5.898 1.774,5.898 ZM3.946,0.497 C3.946,0.497 6.885,8.129 6.885,8.129 C6.885,8.129 1.774,5.650 1.774,5.650 C1.774,5.650 3.946,0.497 3.946,0.497 ZM1.774,0.706 C1.774,0.706 3.946,0.001 3.946,0.001 C3.946,0.001 1.774,5.153 1.774,5.153 C1.774,5.153 1.774,0.706 1.774,0.706 ZM1.510,0.954 C1.510,0.954 1.510,5.402 1.510,5.402 C1.510,5.402 0.001,1.517 0.001,1.517 C0.001,1.517 1.510,0.954 1.510,0.954 ZM7.131,19.754 C7.131,19.754 4.277,12.387 4.277,12.387 C4.277,12.387 9.803,15.066 9.803,15.066 C9.803,15.066 7.131,19.754 7.131,19.754 ZM10.067,19.101 C10.067,19.101 7.395,20.002 7.395,20.002 C7.395,20.002 10.067,15.315 10.067,15.315 C10.067,15.315 10.067,19.101 10.067,19.101 ZM20.079,19.404 C20.079,19.404 18.834,16.159 18.834,16.159 C18.834,16.159 22.416,15.885 22.416,15.885 C22.416,15.885 20.079,19.404 20.079,19.404 ZM23.546,18.316 C23.546,18.316 20.343,19.404 20.343,19.404 C20.343,19.404 22.680,15.885 22.680,15.885 C22.680,15.885 23.546,18.316 23.546,18.316 ZM24.710,18.026 C24.710,18.026 23.811,18.316 23.811,18.316 C23.811,18.316 22.944,15.885 22.944,15.885 C22.944,15.885 24.710,18.026 24.710,18.026 ZM23.795,11.193 C23.795,11.193 26.086,10.234 26.086,10.234 C26.086,10.234 22.944,15.636 22.944,15.636 C22.944,15.636 23.795,11.193 23.795,11.193 ZM26.350,10.234 C26.350,10.234 24.974,17.777 24.974,17.777 C24.974,17.777 23.209,15.636 23.209,15.636 C23.209,15.636 26.350,10.234 26.350,10.234 ZM24.847,6.831 C24.847,6.831 26.858,7.217 26.858,7.217 C26.858,7.217 26.350,9.986 26.350,9.986 C26.350,9.986 24.847,6.831 24.847,6.831 ZM27.999,0.987 C27.999,0.987 26.858,7.217 26.858,7.217 C26.858,7.217 25.489,3.484 25.489,3.484 C25.489,3.484 27.999,0.987 27.999,0.987 Z" id="path-1" class="cls-2" fill-rule="evenodd"/>
</svg>
