<svg xmlns="http://www.w3.org/2000/svg" xmlns:xlink="http://www.w3.org/1999/xlink" preserveAspectRatio="xMidYMid" width="27" height="28" viewBox="0 0 27 28">
  <defs>
    <style>

      .cls-3 {
        fill: #cdcdcd;
      }

      .cls-4 {
        fill: #bdbdbd;
      }

      .cls-5 {
        fill: #ffffff;
      }

      .cls-6 {
        fill: #f54b2f;
        opacity: 0.5;
      }

      .cls-7 {
        fill: #ffffdd;
      }

      .cls-8 {
        fill: #f2f3be;
      }
    </style>
  </defs>
  <g id="group-1">
    <path d="M25.000,28.000 C25.000,28.000 2.000,28.000 2.000,28.000 C0.895,28.000 -0.000,27.104 -0.000,26.000 C-0.000,26.000 -0.000,12.000 -0.000,12.000 C-0.000,10.901 0.887,10.010 1.984,10.001 C1.984,10.001 1.692,10.001 1.692,10.001 C1.447,10.001 1.215,9.955 0.998,9.881 C0.998,9.881 11.579,0.685 11.579,0.685 C12.656,-0.251 14.344,-0.251 15.421,0.685 C15.421,0.685 26.003,9.881 26.003,9.881 C25.786,9.955 25.553,10.001 25.308,10.001 C25.308,10.001 25.016,10.001 25.016,10.001 C26.113,10.010 27.000,10.901 27.000,12.000 C27.000,12.000 27.000,26.000 27.000,26.000 C27.000,27.104 26.105,28.000 25.000,28.000 Z" id="path-1" class="cls-3" fill-rule="evenodd"/>
    <path d="M2.000,10.000 C2.000,10.000 25.000,10.000 25.000,10.000 C26.105,10.000 27.000,10.895 27.000,12.000 C27.000,12.000 27.000,26.000 27.000,26.000 C27.000,27.104 26.105,28.000 25.000,28.000 C25.000,28.000 2.000,28.000 2.000,28.000 C0.895,28.000 -0.000,27.104 -0.000,26.000 C-0.000,26.000 -0.000,12.000 -0.000,12.000 C-0.000,10.895 0.895,10.000 2.000,10.000 Z" id="path-2" class="cls-4" fill-rule="evenodd"/>
    <path d="M25.000,5.000 C25.000,5.000 25.000,20.000 25.000,20.000 C25.000,20.000 7.000,20.000 7.000,20.000 C7.000,20.000 7.000,5.000 7.000,5.000 C7.000,5.000 25.000,5.000 25.000,5.000 Z" id="path-3" class="cls-5" fill-rule="evenodd"/>
    <path d="M22.000,15.000 C22.000,15.000 22.000,10.000 22.000,10.000 C22.000,10.000 23.000,10.000 23.000,10.000 C23.000,10.000 23.000,15.000 23.000,15.000 C23.000,15.000 22.000,15.000 22.000,15.000 ZM19.000,7.000 C19.000,7.000 20.000,7.000 20.000,7.000 C20.000,7.000 20.000,18.000 20.000,18.000 C20.000,18.000 19.000,18.000 19.000,18.000 C19.000,18.000 19.000,7.000 19.000,7.000 ZM17.000,7.000 C17.000,7.000 18.000,7.000 18.000,7.000 C18.000,7.000 18.000,18.000 18.000,18.000 C18.000,18.000 17.000,18.000 17.000,18.000 C17.000,18.000 17.000,7.000 17.000,7.000 ZM15.000,7.000 C15.000,7.000 16.000,7.000 16.000,7.000 C16.000,7.000 16.000,18.000 16.000,18.000 C16.000,18.000 15.000,18.000 15.000,18.000 C15.000,18.000 15.000,7.000 15.000,7.000 ZM13.000,7.000 C13.000,7.000 14.000,7.000 14.000,7.000 C14.000,7.000 14.000,18.000 14.000,18.000 C14.000,18.000 13.000,18.000 13.000,18.000 C13.000,18.000 13.000,7.000 13.000,7.000 ZM11.000,7.000 C11.000,7.000 12.000,7.000 12.000,7.000 C12.000,7.000 12.000,18.000 12.000,18.000 C12.000,18.000 11.000,18.000 11.000,18.000 C11.000,18.000 11.000,7.000 11.000,7.000 ZM9.000,7.000 C9.000,7.000 10.000,7.000 10.000,7.000 C10.000,7.000 10.000,18.000 10.000,18.000 C10.000,18.000 9.000,18.000 9.000,18.000 C9.000,18.000 9.000,7.000 9.000,7.000 Z" id="path-4" class="cls-6" fill-rule="evenodd"/>
    <path d="M26.710,27.074 C26.889,26.785 26.998,26.449 26.998,26.086 C26.998,26.086 26.998,12.913 26.998,12.913 C26.998,12.656 26.945,12.411 26.850,12.187 C26.850,12.187 17.171,20.113 17.171,20.113 C17.171,20.113 26.710,27.074 26.710,27.074 ZM16.296,20.907 C15.493,21.581 14.498,21.923 13.500,21.923 C12.502,21.923 11.507,21.582 10.703,20.907 C10.703,20.907 1.192,27.848 1.192,27.848 C1.427,27.946 1.686,28.001 1.957,28.001 C1.957,28.001 25.042,28.001 25.042,28.001 C25.314,28.001 25.572,27.946 25.808,27.848 C25.808,27.848 16.296,20.907 16.296,20.907 Z" id="path-5" class="cls-7" fill-rule="evenodd"/>
    <path d="M0.149,12.187 C0.055,12.411 0.001,12.656 0.001,12.913 C0.001,12.913 0.001,26.086 0.001,26.086 C0.001,26.449 0.110,26.785 0.290,27.074 C0.290,27.074 9.828,20.113 9.828,20.113 C9.828,20.113 0.149,12.187 0.149,12.187 Z" id="path-6" class="cls-8" fill-rule="evenodd"/>
  </g>
</svg>
