<svg xmlns="http://www.w3.org/2000/svg" xmlns:xlink="http://www.w3.org/1999/xlink" preserveAspectRatio="xMidYMid" width="8" height="14" viewBox="0 0 8 14">
  <defs>
    <style>

      .cls-2 {
        fill: #ffffff;
      }
    </style>
  </defs>
  <path d="M1.734,3.108 C1.734,3.009 1.748,2.792 1.775,2.461 C1.805,2.129 1.929,1.782 2.151,1.418 C2.371,1.054 2.728,0.728 3.225,0.439 C3.720,0.152 4.435,0.007 5.368,0.007 C5.368,0.007 7.997,0.007 7.997,0.007 C7.997,0.007 7.997,2.903 7.997,2.903 C7.997,2.903 6.072,2.903 6.072,2.903 C5.882,2.903 5.704,2.976 5.544,3.119 C5.384,3.261 5.303,3.397 5.303,3.522 C5.303,3.522 5.303,5.325 5.303,5.325 C5.303,5.325 7.996,5.325 7.996,5.325 C7.968,5.677 7.937,6.020 7.902,6.351 C7.902,6.351 7.795,7.226 7.795,7.226 C7.753,7.521 7.709,7.796 7.666,8.049 C7.666,8.049 5.283,8.049 5.283,8.049 C5.283,8.049 5.283,13.991 5.283,13.991 C5.283,13.991 1.734,13.991 1.734,13.991 C1.734,13.991 1.734,8.048 1.734,8.048 C1.734,8.048 0.003,8.048 0.003,8.048 C0.003,8.048 0.003,5.325 0.003,5.325 C0.003,5.325 1.734,5.325 1.734,5.325 C1.734,5.325 1.734,3.108 1.734,3.108 Z" id="path-1" class="cls-2" fill-rule="evenodd"/>
</svg>
