<svg xmlns="http://www.w3.org/2000/svg" xmlns:xlink="http://www.w3.org/1999/xlink" preserveAspectRatio="xMidYMid" width="15" height="15" viewBox="0 0 15 15">
  <defs>
    <style>

      .cls-2 {
        fill: #ffffff;
      }
    </style>
  </defs>
  <path d="M13.559,3.685 C13.600,3.872 13.618,4.070 13.618,4.269 C13.618,5.809 12.399,7.066 10.879,7.144 C10.890,7.263 10.895,7.377 10.895,7.500 C10.895,7.616 10.890,7.735 10.879,7.850 C12.399,7.924 13.618,9.189 13.618,10.731 C13.618,10.928 13.600,11.123 13.559,11.314 C14.382,11.504 15.002,12.248 15.002,13.129 C15.002,13.855 14.575,14.470 13.966,14.779 C13.713,14.910 13.437,15.001 13.134,15.001 C12.698,14.998 12.298,14.844 11.979,14.592 C11.798,14.449 11.651,14.270 11.533,14.071 C11.439,13.912 11.360,13.743 11.316,13.559 C11.248,13.573 11.177,13.570 11.109,13.577 C10.984,13.594 10.859,13.617 10.733,13.617 C9.766,13.617 8.913,13.141 8.390,12.412 C8.074,11.975 7.878,11.448 7.851,10.879 C7.735,10.889 7.617,10.896 7.502,10.896 C7.379,10.896 7.263,10.889 7.146,10.879 C7.146,10.879 7.146,10.879 7.145,10.879 C7.143,10.916 7.132,10.951 7.129,10.988 C7.114,11.160 7.087,11.329 7.042,11.491 C6.708,12.712 5.597,13.617 4.270,13.617 C4.140,13.617 4.023,13.595 3.902,13.579 C3.831,13.570 3.754,13.573 3.684,13.559 C3.484,14.384 2.746,15.001 1.868,15.001 C1.352,15.001 0.884,14.789 0.545,14.449 C0.515,14.419 0.501,14.375 0.473,14.342 C0.344,14.194 0.223,14.038 0.145,13.856 C0.105,13.761 0.107,13.650 0.083,13.548 C0.050,13.410 -0.002,13.279 -0.002,13.132 C-0.002,13.132 -0.002,13.131 -0.002,13.131 C-0.002,13.130 -0.002,13.130 -0.002,13.129 C-0.002,12.791 0.111,12.486 0.269,12.212 C0.523,11.772 0.930,11.431 1.437,11.312 C1.407,11.136 1.388,10.955 1.385,10.771 C1.385,10.758 1.381,10.745 1.381,10.731 C1.381,10.731 1.381,10.731 1.381,10.731 C1.381,10.731 1.381,10.730 1.381,10.730 C1.381,9.955 1.688,9.253 2.187,8.735 C2.490,8.420 2.869,8.184 3.289,8.031 C3.552,7.935 3.829,7.864 4.122,7.848 C4.111,7.733 4.106,7.615 4.106,7.500 C4.106,7.377 4.111,7.263 4.122,7.144 C2.596,7.070 1.381,5.812 1.381,4.269 C1.381,4.072 1.405,3.870 1.437,3.688 C1.149,3.617 0.903,3.464 0.684,3.279 C0.275,2.937 -0.002,2.443 -0.002,1.871 C-0.002,1.871 -0.002,1.870 -0.002,1.869 C-0.002,1.869 -0.002,1.868 -0.002,1.868 C-0.002,1.763 0.041,1.673 0.058,1.573 C0.083,1.427 0.090,1.274 0.146,1.141 C0.148,1.136 0.153,1.133 0.155,1.128 C0.442,0.466 1.098,0.001 1.868,0.001 C2.748,0.001 3.487,0.619 3.683,1.436 C3.871,1.403 4.060,1.380 4.270,1.380 C5.809,1.380 7.071,2.599 7.145,4.124 C7.263,4.112 7.379,4.101 7.502,4.101 C7.617,4.101 7.735,4.112 7.851,4.124 C7.929,2.599 9.190,1.380 10.728,1.380 C10.931,1.380 11.124,1.403 11.318,1.436 C11.507,0.619 12.251,0.001 13.130,0.001 C14.168,0.001 15.002,0.838 15.002,1.871 C15.002,2.750 14.382,3.488 13.559,3.685 Z" id="path-1" class="cls-2" fill-rule="evenodd"/>
</svg>
