<svg xmlns="http://www.w3.org/2000/svg" xmlns:xlink="http://www.w3.org/1999/xlink" preserveAspectRatio="xMidYMid" width="10" height="10" viewBox="0 0 10 10">
  <defs>
    <style>

      .cls-2 {
        fill: #064957;
      }
    </style>
  </defs>
  <path d="M6.675,1.139 C5.149,-0.386 2.666,-0.386 1.140,1.139 C-0.386,2.665 -0.386,5.148 1.140,6.674 C2.498,8.032 4.615,8.178 6.139,7.117 C6.172,7.269 6.245,7.414 6.363,7.532 C6.363,7.532 8.585,9.753 8.585,9.753 C8.909,10.077 9.432,10.077 9.754,9.753 C10.077,9.430 10.077,8.907 9.754,8.584 C9.754,8.584 7.532,6.362 7.532,6.362 C7.415,6.244 7.270,6.171 7.118,6.139 C8.179,4.614 8.033,2.499 6.675,1.139 ZM5.973,5.973 C4.834,7.111 2.980,7.111 1.841,5.973 C0.703,4.834 0.703,2.980 1.841,1.841 C2.980,0.702 4.834,0.702 5.973,1.841 C7.112,2.980 7.112,4.834 5.973,5.973 Z" id="path-1" class="cls-2" fill-rule="evenodd"/>
</svg>
