<svg xmlns="http://www.w3.org/2000/svg" xmlns:xlink="http://www.w3.org/1999/xlink" preserveAspectRatio="xMidYMid" width="13" height="11" viewBox="0 0 13 11">
  <defs>
    <style>

      .cls-2 {
        fill: #ffffff;
      }
    </style>
  </defs>
  <path d="M8.842,-0.001 C9.875,-0.020 10.425,0.373 10.950,0.871 C11.396,0.832 11.975,0.572 12.316,0.391 C12.427,0.328 12.538,0.265 12.648,0.202 C12.453,0.751 12.189,1.181 11.783,1.507 C11.693,1.580 11.603,1.678 11.490,1.723 C11.490,1.726 11.490,1.728 11.490,1.731 C12.069,1.724 12.546,1.452 13.000,1.304 C13.000,1.306 13.000,1.309 13.000,1.311 C12.762,1.706 12.439,2.106 12.095,2.394 C11.956,2.508 11.818,2.624 11.679,2.738 C11.686,3.377 11.670,3.986 11.555,4.523 C10.889,7.645 9.124,9.763 6.331,10.671 C5.327,10.997 3.706,11.131 2.557,10.833 C1.987,10.686 1.472,10.519 0.989,10.299 C0.720,10.176 0.472,10.044 0.234,9.893 C0.156,9.843 0.078,9.794 -0.000,9.744 C0.259,9.752 0.562,9.827 0.852,9.778 C1.114,9.734 1.371,9.745 1.613,9.690 C2.217,9.552 2.752,9.369 3.214,9.088 C3.438,8.952 3.777,8.791 3.936,8.595 C3.637,8.600 3.365,8.527 3.142,8.446 C2.280,8.128 1.777,7.544 1.451,6.667 C1.712,6.697 2.465,6.768 2.641,6.613 C2.312,6.594 1.996,6.396 1.769,6.248 C1.075,5.796 0.509,5.036 0.514,3.868 C0.605,3.912 0.696,3.957 0.787,4.003 C0.961,4.079 1.138,4.120 1.347,4.164 C1.434,4.184 1.610,4.237 1.711,4.199 C1.707,4.199 1.702,4.199 1.698,4.199 C1.564,4.036 1.345,3.927 1.210,3.752 C0.765,3.176 0.347,2.288 0.611,1.230 C0.678,0.962 0.784,0.725 0.898,0.507 C0.902,0.508 0.906,0.511 0.911,0.513 C0.962,0.626 1.078,0.709 1.151,0.803 C1.379,1.098 1.659,1.362 1.945,1.595 C2.919,2.389 3.796,2.877 5.205,3.238 C5.562,3.330 5.975,3.400 6.402,3.401 C6.282,3.037 6.321,2.448 6.415,2.095 C6.652,1.210 7.168,0.571 7.925,0.229 C8.105,0.147 8.306,0.088 8.517,0.040 C8.625,0.026 8.734,0.013 8.842,-0.001 Z" id="path-1" class="cls-2" fill-rule="evenodd"/>
</svg>
