<svg xmlns="http://www.w3.org/2000/svg" preserveAspectRatio="xMidYMid" width="27" height="28" viewBox="0 0 27 28"><defs><style>.cls-3{fill:#cdcdcd}.cls-4{fill:#bdbdbd}.cls-5{fill:#fff}.cls-6{fill:#f54b2f;opacity:.5}.cls-7{fill:#ffd}.cls-8{fill:#f2f3be}</style></defs><g id="group-1"><path d="M25 28H2a2 2 0 0 1-2-2V12a2 2 0 0 1 1.984-1.999h-.292c-.245 0-.477-.046-.694-.12L11.579.685c1.077-.936 2.765-.936 3.842 0l10.582 9.196c-.217.074-.45.12-.695.12h-.292A2 2 0 0 1 27 12v14a2 2 0 0 1-2 2z" id="path-1" class="cls-3" fill-rule="evenodd"/><path d="M2 10h23a2 2 0 0 1 2 2v14a2 2 0 0 1-2 2H2a2 2 0 0 1-2-2V12a2 2 0 0 1 2-2z" id="path-2" class="cls-4" fill-rule="evenodd"/><path d="M25 5v15H7V5h18z" id="path-3" class="cls-5" fill-rule="evenodd"/><path d="M22 15v-5h1v5h-1zm-3-8h1v11h-1V7zm-2 0h1v11h-1V7zm-2 0h1v11h-1V7zm-2 0h1v11h-1V7zm-2 0h1v11h-1V7zM9 7h1v11H9V7z" id="path-4" class="cls-6" fill-rule="evenodd"/><path d="M26.71 27.074a1.87 1.87 0 0 0 .288-.988V12.913c0-.257-.053-.502-.148-.726l-9.679 7.926 9.539 6.961zm-10.414-6.167a4.345 4.345 0 0 1-2.796 1.016 4.344 4.344 0 0 1-2.797-1.016l-9.511 6.941c.235.098.494.153.765.153h23.085c.272 0 .53-.055.766-.153l-9.512-6.941z" id="path-5" class="cls-7" fill-rule="evenodd"/><path d="M.149 12.187a1.872 1.872 0 0 0-.148.726v13.173c0 .363.109.699.289.988l9.538-6.961-9.679-7.926z" id="path-6" class="cls-8" fill-rule="evenodd"/></g></svg>