<svg id="FULL" xmlns="http://www.w3.org/2000/svg" viewBox="0 0 357.13 354.37"><defs><style>.cls-1{fill:#c4c4c4;opacity:.7}.cls-1,.cls-2,.cls-3,.cls-4,.cls-5{fill-rule:evenodd}.cls-2{fill:#eb8a00}.cls-3{fill:#ff5512}.cls-4{fill:#dd1f3e}.cls-5{fill:#ffe810}</style></defs><title>Warm_city_LOGO</title><path class="cls-1" d="M333.73 274.92a86.18 86.18 0 0 1-9.49 21A71.43 71.43 0 1 0 288.39 328a87 87 0 0 1-62.63 5.11c-46-13.56-72.2-61.62-58.56-107.35s62-71.8 108-58.24 72.2 61.62 58.56 107.35zm-9.49 21A71.13 71.13 0 0 1 288.39 328a86.67 86.67 0 0 0 35.85-32z" transform="translate(-63.72 -72.84)"/><path class="cls-2" d="M376.56 349.23a160.59 160.59 0 0 0 26.91-138.72c-23.23-86.2-112.33-137.36-199-114.26S66.33 208 89.56 294.16c19.56 72.59 85.83 120.33 158 119.8-73 .83-140.2-47.36-160-120.76C64.21 206.29 116.08 117 203.47 93.67s177.22 28.27 200.63 115.18a161.92 161.92 0 0 1-27.54 140.38zm-22.26 23.93a163.38 163.38 0 0 0 22.26-23.94 163.23 163.23 0 0 1-129 64.73 165.07 165.07 0 0 0 106.74-40.79z" transform="translate(-63.72 -72.84)"/><path class="cls-2" d="M394.14 341.82a171.59 171.59 0 0 0-70.23-245.05 170.22 170.22 0 0 1 70.23 245.05zM204.76 85.56C113.2 110 58.87 203.55 83.4 294.61s118.6 145.1 210.21 120.7a170.94 170.94 0 0 0 100.16-72.9A172.33 172.33 0 0 1 292 417.22c-92.36 24.61-187.23-29.87-212-121.66S110.1 109.4 202.4 84.8a173.22 173.22 0 0 1 121.51 12 171.82 171.82 0 0 0-119.15-11.24zm189.16 256.61l.22-.35-.22.35zm-.15.24l.15-.24-.15.24z" transform="translate(-63.72 -72.84)"/><path class="cls-2" d="M375.91 194.12a137 137 0 0 0-122.15-74.63c-75.6 0-136.88 60.94-136.88 136.12s61.28 136.12 136.88 136.12A136.78 136.78 0 0 0 340.38 361 152.59 152.59 0 0 1 238 400.22c-84.32 0-152.67-68-152.67-151.82S153.65 96.58 238 96.58a152.75 152.75 0 0 1 136.73 84.2 150.51 150.51 0 0 1 15.94 67.62v3.74a134.85 134.85 0 0 0-14.68-58zm14.68 58v3.46A135.56 135.56 0 0 1 340.38 361a151.08 151.08 0 0 0 50.21-108.86z" transform="translate(-63.72 -72.84)"/><path class="cls-2" d="M390.63 248.25q0-5.94-.47-11.76.46 5.73.47 11.58v.18zM246.19 104.43c-79.78 0-144.44 64.31-144.44 143.64s64.67 143.64 144.44 143.64 144.35-64.21 144.44-143.46v.15c0 83.85-68.35 151.82-152.67 151.82S85.29 332.25 85.29 248.4 153.65 96.58 238 96.58a152.75 152.75 0 0 1 136.73 84.2 150.26 150.26 0 0 1 15.47 55.71 142.18 142.18 0 0 0-15.07-53.3 144.53 144.53 0 0 0-128.9-78.76z" transform="translate(-63.72 -72.84)"/><path class="cls-2" d="M399.46 241a150.11 150.11 0 0 0-2.62-18.82q-1.21-5.94-2.9-11.74 1.58 5.36 2.75 10.86a144.6 144.6 0 0 1 2.77 19.7zM290.82 110.11c-78.44-20.9-159.07 25.39-180.08 103.39s25.53 158.18 104 179.08 159.06-25.39 180.08-103.39a145.32 145.32 0 0 0 4.77-46.9 150.85 150.85 0 0 1-4.91 49.33c-21.82 81-105.54 129.06-187 107.36S77.89 294 99.71 213 205.25 84 286.69 105.68a152.18 152.18 0 0 1 107.26 104.78 146.56 146.56 0 0 0-103.13-100.35zm108.7 131.65c0-.25 0-.49-.05-.73 0 .24 0 .49.05.73zm0 .54v-.54.54z" transform="translate(-63.72 -72.84)"/><path class="cls-2" d="M354.62 332.54a133.51 133.51 0 0 0 22.28-115.21c-19.31-71.67-93.39-114.2-165.46-95S96.61 215.2 115.92 286.87c16.25 60.3 71.27 100 131.24 99.6-60.67.62-116.43-39.43-132.85-100.4-19.46-72.25 23.69-146.52 96.32-165.88S358 143.7 377.43 216a134.6 134.6 0 0 1-22.81 116.59zm-18.6 20a135.81 135.81 0 0 0 18.6-20 135.73 135.73 0 0 1-107.46 53.94A137.25 137.25 0 0 0 336 352.56z" transform="translate(-63.72 -72.84)"/><path class="cls-2" d="M324.48 155.53C271.1 113 193.17 121.59 150.42 174.67a122.67 122.67 0 0 0 19.24 173.09C223 390.27 301 381.7 343.71 328.62a123.58 123.58 0 0 0 13.82-21.29 125.12 125.12 0 0 1-14.19 22c-43.27 53.67-122.15 62.36-176.18 19.32a124.2 124.2 0 0 1-19.47-175.23C191 119.68 269.85 111 323.88 154a124.09 124.09 0 0 1 46.4 85.36 122.57 122.57 0 0 0-45.8-83.87zM370.33 240a122.17 122.17 0 0 1-12.2 66.16 123.75 123.75 0 0 0 12.2-66.16zm0-.48zm0 .48v-.48.48zm-12.26 66.27l.06-.11-.06.11zm-.54 1.08l.54-1.08-.54 1.08z" transform="translate(-63.72 -72.84)"/><path class="cls-2" d="M322.29 157.47C270.18 116 194.1 124.32 152.36 176.15a119.78 119.78 0 0 0 18.78 169c52.11 41.51 128.19 33.14 169.93-18.68a120.65 120.65 0 0 0 13.53-20.85 122.14 122.14 0 0 1-13.88 21.5C298.46 379.58 221.44 388 168.69 346a121.27 121.27 0 0 1-19-171.09C191.94 122.47 268.95 114 321.7 156a121.17 121.17 0 0 1 45.39 84.22 119.68 119.68 0 0 0-44.8-82.77zm44.8 82.77a119.28 119.28 0 0 1-11.92 64.23 120.83 120.83 0 0 0 11.92-64.23zM355 304.76l.15-.3-.15.3zm-.43.85l.43-.85-.43.85z" transform="translate(-63.72 -72.84)"/><path class="cls-2" d="M339.29 306.51A105.29 105.29 0 0 0 296 155.91a104.45 104.45 0 0 1 43.32 150.6zM222.88 149.1c-56.3 15-89.71 72.45-74.62 128.36s73 89.09 129.25 74.11a105.08 105.08 0 0 0 61.56-44.71 105.94 105.94 0 0 1-62.57 45.89c-56.77 15.11-115.1-18.34-130.31-74.75s18.48-114.31 75.24-129.41a106.64 106.64 0 0 1 74.57 7.32 105.78 105.78 0 0 0-73.09-6.81zm116.38 157.46zm-.2.3l.2-.3-.2.3z" transform="translate(-63.72 -72.84)"/><path class="cls-3" d="M319.4 327.79a104.25 104.25 0 0 1-42.1 22.41c-55.71 14.83-113-18-127.89-73.32s18.14-112.18 73.84-127a104.63 104.63 0 0 1 65.87 3.9 100.41 100.41 0 0 0-62.33-3.38c-53.52 14.26-85.28 69-70.94 122.19s69.36 84.81 122.88 70.54A99.55 99.55 0 0 0 329.08 182a103.28 103.28 0 0 1-9.68 145.83zm-30.27-174A100.73 100.73 0 0 1 329.08 182a104.84 104.84 0 0 0-39.95-28.18z" transform="translate(-63.72 -72.84)"/><path class="cls-3" d="M377.37 364.53a174.49 174.49 0 0 0 7.32-220 172.45 172.45 0 0 1-7.32 220zM201.73 83C108.89 107.74 53.8 202.61 78.67 294.92S199 442 291.82 417.27a173.23 173.23 0 0 0 85.55-52.73 175.31 175.31 0 0 1-87.71 54.65c-94 25-190.53-30.39-215.7-123.79S104.55 106 198.51 80.95a176.73 176.73 0 0 1 186.18 63.59A174.64 174.64 0 0 0 201.73 83z" transform="translate(-63.72 -72.84)"/><path class="cls-3" d="M311.33 319a92.24 92.24 0 0 1-37.27 19.87c-49.31 13.14-100-16-113.21-65s16.06-99.44 65.37-112.59a92.49 92.49 0 0 1 58.31 3.46A88.74 88.74 0 0 0 166.55 270c12.7 47.18 61.4 75.17 108.77 62.53a88.3 88.3 0 0 0 44.57-142.86A91.64 91.64 0 0 1 311.33 319zm-26.8-154.25a89.17 89.17 0 0 1 35.37 25 92.79 92.79 0 0 0-35.37-25z" transform="translate(-63.72 -72.84)"/><path class="cls-3" d="M329.58 150.11C273 105 190.37 114.12 145 170.4a130.06 130.06 0 0 0 20.4 183.51A131.88 131.88 0 0 0 303.76 370a133.49 133.49 0 0 1-141-15.84 131.68 131.68 0 0 1-20.64-185.78c45.88-57 129.51-66.17 186.8-20.54a131.6 131.6 0 0 1 49.76 99.37 130 130 0 0 0-49.12-97.11zm20 183.51a131.19 131.19 0 0 0 29.11-86.41A130.64 130.64 0 0 1 303.76 370a132.26 132.26 0 0 0 45.83-36.38z" transform="translate(-63.72 -72.84)"/><path class="cls-4" d="M263.8 166.1c-46.61-6.37-89.63 26.05-96.07 72.41s26.11 89.1 72.73 95.47A85 85 0 0 0 337.27 253a86.78 86.78 0 0 1-98.67 82.87c-47.52-6.51-80.72-50.09-74.17-97.34s50.38-80.27 97.89-73.76a86.71 86.71 0 0 1 64.35 44.13 85 85 0 0 0-62.87-42.8zm62.88 42.85a83.86 83.86 0 0 1 10.6 44.1 85.5 85.5 0 0 0-10.6-44.1z" transform="translate(-63.72 -72.84)"/><path class="cls-4" d="M342 301.3A107.75 107.75 0 0 0 302.69 159 105.69 105.69 0 0 1 342 301.3zM220.59 147.84c-57 15.17-90.82 73.35-75.55 130s73.86 90.2 130.86 75A106.41 106.41 0 0 0 342 301.3 107.84 107.84 0 1 1 302.69 159a107.16 107.16 0 0 0-82.1-11.2z" transform="translate(-63.72 -72.84)"/><path class="cls-4" d="M411.26 306.75a175 175 0 0 0-16.62-148.57c-51-82.89-160-108.78-243.42-57.82S41.57 259.83 92.6 342.72 252.61 451.5 336 400.54q5.66-3.46 11-7.26-5.58 4-11.55 7.66c-84.11 51.25-194 25.23-245.45-58.12S65 150.36 149.12 99.11s194-25.23 245.45 58.12a175.48 175.48 0 0 1 16.7 149.51zm-17.74 37.11a177.18 177.18 0 0 0 17-34.91A175.85 175.85 0 0 1 348.73 392a177.15 177.15 0 0 0 44.8-48.16zM410.83 308l.43-1.25-.43 1.25zm-.34.95l.34-.95-.34.95zm-62.42 83.54l.65-.47-.65.47zm-1.1.8l1.1-.8-1.1.8z" transform="translate(-63.72 -72.84)"/><path class="cls-5" d="M411.27 305.56a174 174 0 0 0-16.47-147.87c-50.72-82.42-159.05-108.16-242-57.49s-109 158.57-58.27 241 159.05 108.16 242 57.49q5.62-3.43 10.89-7.21-5.54 4-11.47 7.61c-83.6 51-192.83 25.08-244-57.79S67.14 149.92 150.75 99s192.83-25.08 244 57.79a174.55 174.55 0 0 1 16.55 148.8zm-309.19-18.1C81.48 211 127.12 132.45 204 112c75.57-20.13 153.21 23.32 175.42 97.37-22.62-71.43-98.06-113.1-171.51-93.53-75.46 20.11-120.25 97.24-100 172.28s97.79 119.57 173.25 99.46a142.58 142.58 0 0 0 27.1-10.26 145.12 145.12 0 0 1-29.64 11.47c-76.9 20.49-155.94-24.87-176.55-101.31zm21-36.87c0-63.93 51.15-116 114.93-117.83-61.78 2.73-111 53.42-111 115.55C127 312.19 179 364 243.24 364s116.26-51.8 116.27-115.67a115.52 115.52 0 0 0-2.41-23.55 117.8 117.8 0 0 1 2.84 25.81c0 65.09-53 117.87-118.44 117.88s-118.41-52.79-118.4-117.88zM241.54 132.7q-1.76 0-3.51.05 2.6-.11 5.23-.12A116.28 116.28 0 0 1 347 196a114.47 114.47 0 0 1 10.09 28.69 116.62 116.62 0 0 0-9.51-26.68 118.42 118.42 0 0 0-106-65.35zm139 80.57q-.53-2-1.12-3.94.93 2.93 1.74 5.93a140.57 140.57 0 0 1-72.92 162 143.21 143.21 0 0 0 72.3-164zm-287.81 80.2c-22.85-84.81 27.77-172 113.06-194.72s173 27.6 195.81 112.41a158.29 158.29 0 0 1-39.48 151.66 155.34 155.34 0 0 0 38.38-148.48C378.08 131.09 292 81.7 208.34 104S75 211.86 97.39 295.1s108.47 132.64 192.17 110.33a158.21 158.21 0 0 0 28.36-10.53 161.26 161.26 0 0 1-29.38 11c-85.29 22.73-173-27.6-195.81-112.41zM353.65 371a155.8 155.8 0 0 1-34.24 23.19A158.78 158.78 0 0 0 353 371.51q4.74-4.17 9.12-8.69-4.07 4.23-8.47 8.16zm40-28.66a176.22 176.22 0 0 0 16.86-34.69 174.86 174.86 0 0 1-61.45 82.61 176.15 176.15 0 0 0 44.59-47.93z" transform="translate(-63.72 -72.84)"/><path class="cls-3" d="M384.48 216.58c-20.22-75-97.79-119.57-173.25-99.46S91 214.35 111.2 289.39A141.09 141.09 0 0 0 216.14 390.1C164.19 379.66 120 341 105.37 286.69c-20.6-76.44 25-155 101.94-175.49s155.94 24.87 176.55 101.31a143.83 143.83 0 0 1 3.69 18.35 141.42 141.42 0 0 0-3.07-14.28zM281.92 388a143.39 143.39 0 0 0 105.62-157.14 141.38 141.38 0 0 1-171.4 159.24 144.41 144.41 0 0 0 65.78-2.1z" transform="translate(-63.72 -72.84)"/></svg>