<svg xmlns="http://www.w3.org/2000/svg" width="12" height="17"><path d="M2.182.999h7.636C11.023.999 12 2.038 12 3.318V14.68c0 1.281-.977 2.319-2.182 2.319H2.182C.977 16.999 0 15.961 0 14.68V3.318C0 2.038.977.999 2.182.999zM2 7.5a.5.5 0 0 0 .5.5h7a.5.5 0 0 0 0-1h-7a.5.5 0 0 0-.5.5zm0 2a.5.5 0 0 0 .5.5h7a.5.5 0 0 0 0-1h-7a.5.5 0 0 0-.5.5zm0 2a.5.5 0 0 0 .5.5h7a.5.5 0 0 0 0-1h-7a.5.5 0 0 0-.5.5zm2-7a.5.5 0 0 0 .5.5h3a.5.5 0 0 0 0-1h-3a.5.5 0 0 0-.5.5zm-2 9a.5.5 0 0 0 .5.5h7a.5.5 0 0 0 0-1h-7a.5.5 0 0 0-.5.5z" fill="#fff"/></svg>