<svg height="15" width="15" xmlns="http://www.w3.org/2000/svg" viewBox="0 0 15 15"><path fill="#fff" fill-rule="evenodd" d="M13.56 3.68a2.88 2.88 0 0 1-2.68 3.46c.01.12.02.24.02.36s-.01.24-.02.35a2.888 2.888 0 0 1 2.68 3.46c.82.19 1.44.94 1.44 1.82 0 .73-.42 1.34-1.03 1.65-.26.13-.53.22-.84.22a1.878 1.878 0 0 1-1.6-.93c-.09-.16-.17-.33-.21-.51-.07.01-.14.01-.21.02-.13.01-.25.04-.38.04-.96 0-1.82-.48-2.34-1.21-.32-.43-.51-.96-.54-1.53-.11.01-.23.02-.35.02-.12 0-.24-.01-.35-.02-.01.04-.02.07-.02.11a2.877 2.877 0 0 1-2.86 2.63c-.13 0-.25-.02-.37-.04-.07-.01-.15-.01-.22-.02-.2.82-.93 1.44-1.81 1.44-.52 0-.99-.21-1.32-.55-.04-.03-.05-.08-.08-.11-.13-.15-.25-.3-.33-.48-.03-.1-.03-.21-.06-.31-.03-.14-.08-.27-.08-.42 0-.34.11-.64.27-.92.25-.44.66-.78 1.17-.9-.03-.17-.05-.35-.05-.54 0-.01-.01-.02-.01-.04 0-.78.31-1.48.81-2 .3-.31.68-.55 1.11-.7.26-.1.53-.17.82-.18-.01-.12-.01-.23-.01-.35 0-.12 0-.24.01-.36a2.878 2.878 0 0 1-2.74-2.87c0-.2.03-.4.06-.58-.29-.07-.54-.23-.76-.41C.27 2.94 0 2.44 0 1.87c0-.11.04-.2.06-.3.02-.14.03-.3.09-.43 0 0 0-.01.01-.01C.44.47 1.1 0 1.87 0c.88 0 1.62.62 1.81 1.44a2.894 2.894 0 0 1 3.47 2.68c.11-.01.23-.02.35-.02.12 0 .24.01.35.02a2.894 2.894 0 0 1 3.47-2.68 1.865 1.865 0 1 1 2.24 2.24z"/></svg>