<svg height="18" width="24" xmlns="http://www.w3.org/2000/svg" viewBox="0 0 24 18"><path fill="#0fb5de" fill-rule="evenodd" d="M17.5 6.34c1.79 0 3.25-1.42 3.25-3.17C20.75 1.43 19.29 0 17.5 0s-3.25 1.43-3.25 3.17c0 1.75 1.46 3.17 3.25 3.17zm0 1.15c-2.19 0-6.5 1.03-6.5 3.17v1.59zC11 12.25 11.79 14 17.36 14c6.12 0 6.64-1.75 6.64-1.75v-1.59zc6.5 1.03 2.19 0 0 0z"/><path stroke-width="2" stroke="#fff" fill="#0fb5de" fill-rule="evenodd" d="M7.37 16C2.33 16 2 14.29 2 14.29v-1.55zC2 10.64 5.51 9.64 7.5 9.64c1.99 0 5.5 1 5.5 3.1v1.55zc5.63-1.71 5.55 0 0 0zM5.81 8.79c-.95 0-2.12-.43-2.12-.43s.63-1.11.88-1.94c.36-1.22.39-2.3.39-2.3H5zC5.21 2.92 6.25 2 7.5 2s2.29.92 2.5 2.12h.04zc4.23-4.67 4.27-3.53 4.64-2.3.24.79.86 1.87.86 1.87s-1.28-.42-2.38-.42c-1 0-2.17.85-3.12.85z"/></svg>