<svg xmlns="http://www.w3.org/2000/svg" width="22" height="23"><path d="M8.106 8.722l3.745 6.487A7.46 7.46 0 0 1 8.512 16 7.512 7.512 0 0 1 1 8.488C1 4.498 4.113 1.244 8.042 1v7.488c0 .081.021.161.064.234zM.073 19.644a.253.253 0 0 1 0-.355L3 17v2h11v-2l3.066 2.289a.251.251 0 0 1 0 .355L14 22v-2H3v2zM16 8.018H8.981V1A7.5 7.5 0 0 1 16 8.018zm-6.675.939H16a7.497 7.497 0 0 1-3.334 5.787zm.595-1.878h5.003A6.574 6.574 0 0 0 9.92 2.076zm4.063 14.957c-.066.06-.279.038.017-.036.07.03-.006.055-.017.036zM3 22c.068-.028.038.036.016.037-.015.017-.085-.009-.016-.037zm10.984-5.038c.015-.015.084.01.016.038-.068.027-.038-.037-.016-.038zm-10.968 0c.022 0 .052.065-.016.038-.068-.028 0-.053.016-.038zM18.39.073a.242.242 0 0 1 .346 0l2.233 2.899c-.026.066.035.038.037.016.016-.014-.008-.083-.037-.016h-1.951v10.9h1.951c.028.068.053-.001.037-.016-.001-.021-.064-.05-.037.016l-2.233 3.038a.242.242 0 0 1-.346 0l-2.299-3.038c-.072-.293-.093-.082-.035-.017-.019.011.006.087.035.017h1.952v-10.9h-1.952zm-2.299 2.899c.027.066-.034.038-.036.016-.016-.014.008-.083.036-.016z" fill="#0fb5de"/></svg>