<svg height="20" width="28" xmlns="http://www.w3.org/2000/svg" viewBox="0 0 28 20"><path fill="#fff" fill-rule="evenodd" d="M24.58 6.58l.64-3.34zl2.01.39zm.98-5.1l2.17-.74zl-.34 1.76zm.53 8.51l-2.29.96zl-1.51-3.16zm-7.93 3.45l5.37-2.25zl4.52 2.2zm.67 2.47l-.93-2.47zl3.59-.27zM15.64 7.5l4.64 2.25zl2.26 5.94zm3.33-1.62l1.31 3.62zl-3.33 1.37zm-4.42-1.07l4.16.82zL15.38 7zM16.9.41l1.81 4.97zl-2.35 4.15zM13.04 10.6l2.08-3.84zl4.33 2.1zm.12-4.81l1.12-1.23zl1.96.97zm0-4.22L16.64.41zl1.12 2.99zm.86 2.99l-1.13 1.23zl-1.13-2.99zm-1.24 6.04l.11-4.81zl2.07-3.84zm-2.71-.44l2.56-3.63zl2.44 1.19zm2.44 1.43l-2.44 3.48zl-2.44-1.18zm-8.23.55l5.53-1.98zl5.52 2.68zm2.87-3.51l2.66 1.28zl-2.87 3.26zM1.77 5.9l5.11 2.48zl2.24 5.74zM3.95.5l2.93 7.63zL1.77 5.65zM1.77.71L3.95 0zv4.44zm-.26.24V5.4zL0 1.52zm5.62 18.8l-2.85-7.36zl2.67-4.68zm2.94-.65l-2.68.9zv-3.78zm10.01.3l-1.25-3.24zl2.34-3.52zm3.47-1.08l-3.21 1.08zl-.87-2.44zm1.16-.29l-.9.29zl-1.77-2.15zm-.91-6.84l2.29-.96zl-.86 4.45zm2.55-.96l-1.38 7.55zl-3.14 5.41zm-1.5-3.4l2.01.39zl1.5 3.16zM28 .99l-1.14 6.23zl-2.51 2.49z"/></svg>