<svg height="11" width="13" xmlns="http://www.w3.org/2000/svg" viewBox="0 0 13 11"><path fill="#fff" fill-rule="evenodd" d="M8.84 0c1.04-.02 1.58.37 2.11.87.45-.04 1.02-.3 1.37-.48.11-.06.22-.13.33-.19-.2.55-.46.98-.87 1.31-.09.07-.18.17-.29.21v.01c.58-.01 1.06-.28 1.51-.43v.01c-.24.4-.56.8-.9 1.08-.14.12-.28.23-.42.35.01.64-.01 1.25-.12 1.78-.67 3.12-2.44 5.24-5.23 6.15-1 .33-2.62.46-3.77.16-.57-.14-1.09-.31-1.57-.53-.27-.12-.52-.26-.76-.41A4.6 4.6 0 0 0 0 9.74c.26.01.56.09.85.04.26-.05.52-.03.76-.09.61-.14 1.14-.32 1.6-.6.23-.14.57-.3.73-.49-.3 0-.57-.07-.8-.15-.86-.32-1.36-.91-1.69-1.78.26.03 1.01.1 1.19-.06-.33-.02-.64-.21-.87-.36C1.08 5.8.51 5.04.51 3.87c.1.04.19.09.28.13.17.08.35.12.56.16.08.02.26.08.36.04H1.7c-.14-.16-.35-.27-.49-.45-.44-.57-.86-1.46-.6-2.52C.68.96.78.73.9.51h.01c.05.12.17.2.24.29.23.3.51.56.79.8.98.79 1.86 1.28 3.26 1.64.36.09.77.16 1.2.16-.12-.36-.08-.95.01-1.3.24-.89.76-1.53 1.51-1.87.19-.08.39-.14.6-.19.11-.01.21-.03.32-.04z"/></svg>