<svg height="10" width="18" xmlns="http://www.w3.org/2000/svg" viewBox="0 0 18 10"><path fill="#fff" fill-rule="evenodd" d="M17.22 7.8c-.4-.45-.84-.86-1.27-1.25-.16-.14-.32-.28-.47-.43-.44-.41-.45-.56-.11-1.03.25-.32.5-.65.75-.96.22-.28.45-.57.67-.87l.05-.06zc.04-5.16.48-5.74.71-6.44.06-.19.13-.46-.02-.69-.14-.23-.43-.3-.62-.33-.1-.01-.2-.02-.29-.02h-2.78zL14.2.32zC13.78.32 13.5.51 13.34.9c-.16.37-.33.77-.52 1.15-.39.75-.88 1.61-1.59 2.34l-.03.03zc-6.1-3.3-6.19-3.2-6.26-3.2h-.04c-.14-.06-.24-.4-.24-.56V.96zC10.68.95 10.68.94 10.68.93c-.07-.5-.23-.81-.82-.93H6.93zC6.46 0 6.2.18 5.95.46c-.06.07-.2.22-.13.41.07.19.29.23.36.24.37.07.57.28.63.65.1.64.11 1.33.04 2.16-.02.23-.06.41-.13.56-.02.03-.07.15-.13.15-.02 0-.07-.01-.17-.07-.22-.15-.38-.36-.57-.62-.65-.88-1.2-1.85-1.67-2.96-.17-.41-.5-.64-.92-.65C2.8.32 2.38.32 1.98.32c-.43 0-.83 0-1.23.01C.42.34.18.43.06.62c-.12.19-.12.43.02.73C1.19 3.71 2.2 5.43 3.35 6.93c.8 1.04 1.61 1.77 2.53 2.27.98.54 2.07.8 3.35.8.14 0 .29 0 .44-.01.74-.04 1.02-.29 1.05-.98.02-.36.06-.73.24-1.05.11-.19.22-.19.25-.19.07 0 .16.03.25.08.16.1.3.24.41.36.1.11.21.22.32.34.22.24.46.49.71.73.53.53 1.13.76 1.81.71h2.54zc.04 2.19.04 2.19.05 2.19.25-.02.47-.15.6-.37.16-.27.16-.62-.01-.93-.19-.35-.43-.64-.64-.89z"/></svg>